<svg width="21" height="21" viewBox="0 0 21 21" fill="none" xmlns="http://www.w3.org/2000/svg">
<rect x="0.519531" y="0.130005" width="20" height="20" rx="10" fill="#3BB77E"/>
<path d="M13.1264 13.02C13.2544 13.02 13.3544 13.058 13.4264 13.134C13.4984 13.206 13.5344 13.302 13.5344 13.422V14.13H7.75041V13.728C7.75041 13.648 7.76641 13.564 7.79841 13.476C7.83041 13.384 7.88441 13.302 7.96041 13.23L10.6844 10.5C10.9124 10.272 11.1184 10.052 11.3024 9.84C11.4864 9.628 11.6424 9.418 11.7704 9.21C11.8984 8.998 11.9964 8.782 12.0644 8.562C12.1364 8.342 12.1724 8.11 12.1724 7.866C12.1724 7.626 12.1344 7.416 12.0584 7.236C11.9824 7.052 11.8784 6.9 11.7464 6.78C11.6144 6.66 11.4584 6.57 11.2784 6.51C11.0984 6.45 10.9044 6.42 10.6964 6.42C10.4884 6.42 10.2964 6.45 10.1204 6.51C9.94841 6.57 9.79441 6.654 9.65841 6.762C9.52241 6.87 9.40841 6.998 9.31641 7.146C9.22441 7.294 9.15841 7.454 9.11841 7.626C9.06241 7.778 8.99041 7.88 8.90241 7.932C8.81841 7.984 8.69441 7.996 8.53041 7.968L7.91841 7.86C7.97441 7.46 8.08441 7.108 8.24841 6.804C8.41241 6.5 8.61841 6.246 8.86641 6.042C9.11441 5.834 9.39841 5.678 9.71841 5.574C10.0424 5.47 10.3904 5.418 10.7624 5.418C11.1384 5.418 11.4844 5.474 11.8004 5.586C12.1204 5.694 12.3964 5.852 12.6284 6.06C12.8604 6.268 13.0424 6.522 13.1744 6.822C13.3064 7.118 13.3724 7.454 13.3724 7.83C13.3724 8.15 13.3244 8.448 13.2284 8.724C13.1364 8.996 13.0084 9.256 12.8444 9.504C12.6844 9.752 12.4964 9.994 12.2804 10.23C12.0684 10.462 11.8424 10.698 11.6024 10.938L9.41841 13.17C9.58641 13.126 9.75441 13.09 9.92241 13.062C10.0944 13.034 10.2564 13.02 10.4084 13.02H13.1264Z" fill="white"/>
</svg>
