<svg width="21" height="21" viewBox="0 0 21 21" fill="none" xmlns="http://www.w3.org/2000/svg">
<rect x="0.378906" y="0.130005" width="20" height="20" rx="10" fill="#3BB77E"/>
<path d="M7.81378 7.86C7.87378 7.46 7.98578 7.108 8.14978 6.804C8.31378 6.5 8.51978 6.246 8.76778 6.042C9.01578 5.834 9.29978 5.678 9.61978 5.574C9.94378 5.47 10.2918 5.418 10.6638 5.418C11.0358 5.418 11.3778 5.472 11.6898 5.58C12.0018 5.684 12.2678 5.834 12.4878 6.03C12.7118 6.222 12.8858 6.454 13.0098 6.726C13.1338 6.998 13.1958 7.298 13.1958 7.626C13.1958 7.902 13.1618 8.146 13.0938 8.358C13.0258 8.57 12.9278 8.756 12.7998 8.916C12.6758 9.076 12.5238 9.212 12.3438 9.324C12.1638 9.432 11.9618 9.522 11.7378 9.594C12.2858 9.746 12.6978 9.994 12.9738 10.338C13.2498 10.678 13.3878 11.11 13.3878 11.634C13.3878 12.038 13.3118 12.402 13.1598 12.726C13.0078 13.046 12.7998 13.318 12.5358 13.542C12.2718 13.762 11.9638 13.932 11.6118 14.052C11.2638 14.168 10.8918 14.226 10.4958 14.226C10.0438 14.226 9.65578 14.172 9.33178 14.064C9.00778 13.952 8.73178 13.798 8.50378 13.602C8.27578 13.402 8.08578 13.164 7.93378 12.888C7.78578 12.608 7.65978 12.302 7.55578 11.97L8.06578 11.754C8.19778 11.698 8.32578 11.682 8.44978 11.706C8.57378 11.73 8.66378 11.8 8.71978 11.916C8.77978 12.036 8.84778 12.172 8.92378 12.324C9.00378 12.472 9.10978 12.614 9.24178 12.75C9.37378 12.882 9.53778 12.994 9.73378 13.086C9.93378 13.178 10.1838 13.224 10.4838 13.224C10.7718 13.224 11.0238 13.178 11.2398 13.086C11.4558 12.99 11.6358 12.868 11.7798 12.72C11.9238 12.568 12.0318 12.4 12.1038 12.216C12.1758 12.032 12.2118 11.85 12.2118 11.67C12.2118 11.446 12.1838 11.24 12.1278 11.052C12.0718 10.864 11.9638 10.704 11.8038 10.572C11.6478 10.436 11.4298 10.33 11.1498 10.254C10.8698 10.178 10.5058 10.14 10.0578 10.14V9.288C10.4258 9.284 10.7358 9.246 10.9878 9.174C11.2438 9.102 11.4498 9.002 11.6058 8.874C11.7618 8.746 11.8738 8.594 11.9418 8.418C12.0138 8.242 12.0498 8.046 12.0498 7.83C12.0498 7.594 12.0138 7.388 11.9418 7.212C11.8698 7.036 11.7678 6.89 11.6358 6.774C11.5078 6.654 11.3538 6.566 11.1738 6.51C10.9978 6.45 10.8058 6.42 10.5978 6.42C10.3898 6.42 10.1978 6.45 10.0218 6.51C9.84578 6.57 9.68978 6.654 9.55378 6.762C9.41778 6.87 9.30378 6.998 9.21178 7.146C9.11978 7.294 9.05378 7.454 9.01378 7.626C8.95778 7.778 8.88578 7.88 8.79778 7.932C8.71378 7.984 8.59178 7.996 8.43178 7.968L7.81378 7.86Z" fill="white"/>
</svg>
