<svg width="21" height="21" viewBox="0 0 21 21" fill="none" xmlns="http://www.w3.org/2000/svg">
<rect x="0.160156" y="0.130005" width="20" height="20" rx="10" fill="#3BB77E"/>
<path d="M10.319 13.248C10.595 13.248 10.845 13.204 11.069 13.116C11.293 13.024 11.485 12.9 11.645 12.744C11.805 12.588 11.929 12.402 12.017 12.186C12.105 11.97 12.149 11.736 12.149 11.484C12.149 11.208 12.105 10.962 12.017 10.746C11.933 10.526 11.813 10.34 11.657 10.188C11.505 10.036 11.321 9.92 11.105 9.84C10.889 9.76 10.649 9.72 10.385 9.72C10.109 9.72 9.86103 9.768 9.64103 9.864C9.42103 9.956 9.23303 10.082 9.07703 10.242C8.92103 10.398 8.80103 10.582 8.71703 10.794C8.63303 11.006 8.59103 11.228 8.59103 11.46C8.59103 11.724 8.62903 11.966 8.70503 12.186C8.78103 12.406 8.89303 12.594 9.04103 12.75C9.18903 12.906 9.36903 13.028 9.58103 13.116C9.79703 13.204 10.043 13.248 10.319 13.248ZM9.76703 8.718C9.69903 8.806 9.63103 8.892 9.56303 8.976C9.49903 9.056 9.43703 9.136 9.37703 9.216C9.56903 9.092 9.78103 8.996 10.013 8.928C10.249 8.86 10.503 8.826 10.775 8.826C11.115 8.826 11.439 8.882 11.747 8.994C12.055 9.106 12.325 9.27 12.557 9.486C12.793 9.702 12.979 9.97 13.115 10.29C13.251 10.61 13.319 10.978 13.319 11.394C13.319 11.79 13.247 12.162 13.103 12.51C12.959 12.854 12.755 13.154 12.491 13.41C12.231 13.662 11.919 13.862 11.555 14.01C11.191 14.154 10.787 14.226 10.343 14.226C9.90303 14.226 9.50503 14.156 9.14903 14.016C8.79703 13.876 8.49503 13.678 8.24303 13.422C7.99503 13.162 7.80303 12.85 7.66703 12.486C7.53103 12.118 7.46303 11.71 7.46303 11.262C7.46303 10.878 7.54503 10.474 7.70903 10.05C7.87703 9.622 8.14103 9.166 8.50103 8.682L10.655 5.796C10.715 5.716 10.799 5.65 10.907 5.598C11.015 5.542 11.139 5.514 11.279 5.514H12.323L9.76703 8.718Z" fill="white"/>
</svg>
