<svg width="31" height="31" viewBox="0 0 31 31" fill="none" xmlns="http://www.w3.org/2000/svg">
<g clip-path="url(#clip0_6511_2006)">
<path d="M23.84 19.0039C23.2258 18.3644 22.485 18.0225 21.6999 18.0225C20.9211 18.0225 20.1739 18.3581 19.5344 18.9976L17.5336 20.9921C17.369 20.9035 17.2044 20.8211 17.0461 20.7388C16.8181 20.6249 16.6028 20.5172 16.4192 20.4032C14.545 19.2129 12.8418 17.6616 11.2082 15.6545C10.4168 14.6541 9.8849 13.8119 9.49867 12.9572C10.0179 12.4823 10.4991 11.9884 10.9676 11.5135C11.1449 11.3362 11.3222 11.1526 11.4995 10.9753C12.8291 9.64568 12.8291 7.92346 11.4995 6.5938L9.77093 4.86524C9.57465 4.66896 9.37203 4.46635 9.18208 4.26373C8.80218 3.87117 8.40328 3.46594 7.99172 3.08603C7.37755 2.47819 6.64307 2.15527 5.8706 2.15527C5.09813 2.15527 4.35099 2.47819 3.71782 3.08603C3.71149 3.09237 3.71149 3.09237 3.70516 3.0987L1.55238 5.27047C0.74192 6.08093 0.279705 7.06868 0.178398 8.21472C0.0264369 10.0636 0.570964 11.7858 0.988856 12.9128C2.01459 15.6798 3.54687 18.2441 5.83261 20.9921C8.6059 24.3036 11.9427 26.9186 15.7544 28.7611C17.2107 29.4513 19.1545 30.268 21.3263 30.4073C21.4593 30.4137 21.5986 30.42 21.7252 30.42C23.1878 30.42 24.4162 29.8945 25.3786 28.8497C25.3849 28.8371 25.3976 28.8307 25.4039 28.8181C25.7332 28.4192 26.1131 28.0583 26.512 27.672C26.7842 27.4124 27.0628 27.1402 27.3351 26.8553C27.9619 26.2031 28.2912 25.4433 28.2912 24.6645C28.2912 23.8794 27.9556 23.1259 27.3161 22.4927L23.84 19.0039ZM26.1067 25.6712C26.1004 25.6712 26.1004 25.6776 26.1067 25.6712C25.8598 25.9372 25.6065 26.1778 25.3343 26.4437C24.9227 26.8363 24.5048 27.2478 24.1122 27.71C23.4727 28.3939 22.7193 28.7168 21.7315 28.7168C21.6365 28.7168 21.5352 28.7168 21.4403 28.7104C19.5597 28.5901 17.8122 27.8557 16.5015 27.2288C12.9178 25.4939 9.77093 23.0309 7.15594 19.9094C4.99683 17.307 3.5532 14.901 2.59711 12.3177C2.00826 10.7411 1.79298 9.51271 1.88796 8.35401C1.95128 7.6132 2.2362 6.99903 2.76173 6.4735L4.92085 4.31438C5.2311 4.02313 5.56035 3.86483 5.88326 3.86483C6.28216 3.86483 6.60508 4.10544 6.80769 4.30805C6.81402 4.31438 6.82036 4.32072 6.82669 4.32705C7.21292 4.68796 7.58016 5.06153 7.9664 5.46042C8.16268 5.66304 8.36529 5.86565 8.56791 6.0746L10.2965 7.80315C10.9676 8.47432 10.9676 9.09482 10.2965 9.76598C10.1128 9.9496 9.93556 10.1332 9.75194 10.3105C9.22007 10.855 8.71354 11.3616 8.16268 11.8554C8.15001 11.8681 8.13735 11.8744 8.13102 11.8871C7.58649 12.4316 7.6878 12.9635 7.80177 13.3244C7.8081 13.3434 7.81443 13.3624 7.82077 13.3814C8.27032 14.4704 8.90349 15.4962 9.86591 16.7182L9.87224 16.7245C11.6198 18.8773 13.4623 20.5552 15.4948 21.8405C15.7544 22.0052 16.0203 22.1381 16.2736 22.2648C16.5015 22.3787 16.7168 22.4864 16.9004 22.6003C16.9258 22.613 16.9511 22.632 16.9764 22.6447C17.1917 22.7523 17.3943 22.803 17.6033 22.803C18.1288 22.803 18.458 22.4737 18.5657 22.3661L20.7311 20.2006C20.9464 19.9854 21.2883 19.7258 21.6872 19.7258C22.0798 19.7258 22.4027 19.9727 22.599 20.188C22.6053 20.1943 22.6053 20.1943 22.6116 20.2006L26.1004 23.6894C26.7526 24.3352 26.7526 25.0001 26.1067 25.6712Z" fill="black"/>
<path d="M16.3442 7.55603C18.0031 7.83462 19.5101 8.61976 20.7131 9.82278C21.9161 11.0258 22.6949 12.5327 22.9798 14.1917C23.0495 14.6095 23.4104 14.9008 23.822 14.9008C23.8726 14.9008 23.9169 14.8945 23.9676 14.8881C24.4361 14.8122 24.7464 14.3689 24.6704 13.9004C24.3285 11.8932 23.3787 10.0634 21.9288 8.61342C20.4788 7.16346 18.649 6.21371 16.6418 5.8718C16.1733 5.79581 15.7364 6.10607 15.6541 6.56828C15.5718 7.0305 15.8757 7.48005 16.3442 7.55603Z" fill="black"/>
<path d="M30.0963 13.6536C29.5327 10.3484 27.9751 7.34084 25.5818 4.94746C23.1884 2.55407 20.1808 0.996475 16.8757 0.432953C16.4134 0.350641 15.9766 0.667227 15.8942 1.12944C15.8183 1.59799 16.1285 2.03487 16.5971 2.11719C19.5476 2.61739 22.2386 4.0167 24.3787 6.15048C26.5189 8.2906 27.9118 10.9816 28.412 13.9321C28.4817 14.35 28.8426 14.6413 29.2541 14.6413C29.3048 14.6413 29.3491 14.635 29.3998 14.6286C29.862 14.559 30.1786 14.1158 30.0963 13.6536Z" fill="black"/>
</g>
<defs>
<clipPath id="clip0_6511_2006">
<rect width="30" height="30" fill="white" transform="translate(0.128906 0.419922)"/>
</clipPath>
</defs>
</svg>
